<?xml version="1.0" encoding="utf-8"?>
<!-- Generator: Adobe Illustrator 22.1.0, SVG Export Plug-In . SVG Version: 6.00 Build 0)  -->
<svg version="1.1" xmlns="http://www.w3.org/2000/svg" xmlns:xlink="http://www.w3.org/1999/xlink" x="0px" y="0px"
	 viewBox="0 0 2000 2000" enable-background="new 0 0 2000 2000" xml:space="preserve">
<g id="Marketplace">
	<path d="M1569.4,1515.2c-13.7,15-25.7,28.2-26.6,29.4c-1.7,2.1-1.3,2.5,33.3,34c19.2,17.5,35.3,32,35.8,32.2
		c0.6,0.2,38.5-40.6,52.1-56.2l3.4-3.8l-5-4.4c-2.7-2.4-5.1-4.3-5.4-4.4c-0.3,0-9.9,10.3-21.4,23c-11.5,12.6-21.7,23.7-22.7,24.6
		c-2.1,1.9-1.8,2.1-16.7-11.8l-6.3-5.9l11.1-12l11.2-12.1l-4.8-4.4c-2.7-2.4-5.2-4.3-5.5-4.4c-0.4,0-5.3,5.1-11,11.4
		c-5.7,6.3-10.8,11.4-11.4,11.5c-0.5,0-4.9-3.7-9.8-8.2l-8.7-8.2l21.9-24c24.5-26.8,23.2-24.1,15-30.6l-3.7-2.9L1569.4,1515.2z"/>
	<path d="M394.8,1497c-4.5,2.4-8.3,7.3-10.4,13.2l-1.5,4.6l-5.2-2.9c-11.9-6.4-22.2-6.1-29.9,0.9c-7.4,6.7-9.6,14.4-7.4,25.2
		c2.9,13.9,13.2,27.1,25.8,33.5c3.9,1.9,7.7,3.5,8.6,3.5c1.2,0,1.3,0.9,0.8,4.8c-0.6,4.7-0.5,4.9,5,11.5c3.2,3.7,6.1,6.7,6.5,6.7
		c0.5,0,0.9-1.1,0.9-2.5c0-1.3,0.5-5.8,1.1-9.9l1.1-7.4l10.3-0.4c5.7-0.1,10.6-0.6,11-0.9c0.3-0.4,0.3-3.6-0.1-7.1l-0.6-6.5
		l-9.5,0.5l-9.5,0.5l0.6-4.4c0.4-2.4,1.7-13.3,3.1-24.1c1.3-10.9,2.9-20.7,3.5-21.8s2.2-2.7,3.5-3.6c2.2-1.4,2.7-1.4,6.1,0.2
		c4.9,2.4,9,8.3,11.7,17.2c2.5,8.2,1.8,7.9,11.9,5.1c3.5-0.9,3.8-1.2,3.2-3.7c-1.3-5.8-8.3-18.9-12.8-23.9
		C414.1,1495.9,403.2,1492.6,394.8,1497z M376.4,1526.9c5.3,3.7,5.2,3,3.1,21.1c-0.8,6.9-1.5,12.6-1.5,12.8c0,1.3-10.7-5.7-14.3-9.4
		C344.8,1532.3,355.2,1512.3,376.4,1526.9z"/>
	<path d="M1510.5,1581.5c-19.2,4.2-34.5,15.8-42.3,32.2c-3.7,7.7-3.7,7.9-3.7,20.4v12.6l4.2,8.4c6.9,13.9,18.5,23.9,31.8,27.4
		c17.6,4.5,36.9-0.9,51.9-14.6c10.8-9.9,17.3-22.1,19.1-35.6l0.7-5.2l-5.9-0.6c-3.2-0.4-6.2-0.7-6.8-0.6c-0.5,0-1.5,3.1-2.3,6.8
		c-1.8,9.2-6.3,17.1-13.3,23.8c-12.5,11.9-29.9,16.5-43.4,11.4c-7.1-2.6-15.9-10.9-19.3-18c-6.7-13.9-3.6-30.4,7.9-41.9
		c8.8-8.8,18.1-12.9,31.9-13.9l8.5-0.6l0.7-4.5c0.4-2.5,1-5.5,1.3-6.8c0.5-2.1,0.3-2.2-7.2-2.1
		C1520,1580.1,1513.8,1580.8,1510.5,1581.5z"/>
	<path d="M524.9,1617.7c-5.6,8.2-18,25.9-27.5,39.6l-17.3,24.7l4.7,3.5c2.6,1.9,5.2,3.5,5.8,3.5s9.6-12.1,20-27
		c10.3-14.8,18.9-26.9,19-26.7c0.1,0.1-1.2,15.1-3.1,33.2c-1.8,18.2-3.1,33.1-3,33.3c0.2,0.2,13.9-6,30.4-13.9
		c16.6-7.8,30.3-14,30.5-13.8c0.1,0.2-7.8,11.9-17.6,25.9c-9.8,14-18.3,26.3-18.9,27.2c-0.8,1.5,0,2.4,4.7,5.5
		c5.5,3.6,5.7,3.7,7.1,1.8c0.8-1.1,13.2-18.8,27.5-39.4l26-37.3l-2.8-2.4c-1.6-1.2-4.2-3-5.9-3.9l-3-1.6l-30.9,14.6
		c-16.9,8-30.9,14.5-31.1,14.3c-0.1-0.2,1.3-14.3,3.1-31.3c1.8-17.1,3.3-32.4,3.4-34c0-2.5-0.9-3.6-5.4-6.8l-5.4-3.7L524.9,1617.7z"
		/>
	<path d="M1390,1662.5c-3,1.9-5.8,3.6-6.2,3.7c-0.8,0.3,9.7,103.6,10.5,104.5c0.5,0.5,11.4-5.4,12.1-6.6c0.3-0.4-0.3-8.3-1.2-17.5
		c-1.8-16.8-1.8-16.8,0.3-18.1c3.8-2.3,31-18.2,33.3-19.4c2.2-1.1,3.5-0.4,16.2,8.7l13.8,10l4.3-2.5c10.3-6,14.3-1.7-33.7-35.9
		c-23.5-16.7-43-30.4-43.3-30.4C1395.8,1659,1393,1660.6,1390,1662.5z M1412.7,1687.6c7.6,5.3,14.2,10,14.7,10.4
		c0.4,0.5-5,4.2-12,8.4c-7.1,4.1-13,7.3-13.2,7.1c-0.4-0.3-4.1-31.5-4.2-34.8c0-0.4,0.2-0.7,0.5-0.7
		C1398.7,1678,1405.1,1682.3,1412.7,1687.6z"/>
	<path d="M629,1721c-21.7,18-39.6,33.2-39.7,33.7c-0.2,0.6,2.6,2.3,6.2,3.8c5.8,2.5,6.7,2.6,8.3,1.3c8.5-7.3,24.2-19.8,24.8-19.8
		c0.4,0,9.3,4.2,19.7,9.2l19,9.3l-0.5,17.3l-0.6,17.3l6.6,3c3.6,1.6,6.7,2.7,6.9,2.5c0.5-0.5,3.2-79.4,3.3-94.3V1694l-6-3
		c-3.3-1.6-6.5-3-7.2-2.9C669.1,1688.1,650.7,1702.9,629,1721z M668.3,1730.3l-0.8,12.7l-13.4-6.5c-11.7-5.7-13.3-6.8-12-8
		c0.8-0.8,7-6.1,13.9-11.8l12.5-10.5l0.3,5.7C668.9,1715,668.7,1723.2,668.3,1730.3z"/>
	<path d="M1280.3,1715.3c-2.9,1.3-5.5,2.6-5.8,2.9c-0.5,0.5,34.5,86.3,36,88.6c0.2,0.1,14.4-5.6,31.6-12.9
		c17.3-7.2,32.4-13.5,33.6-13.9l2.2-0.9l-2.6-6.1c-1.5-3.3-3.1-6-3.7-6c-0.6,0-12.8,4.9-27.1,10.9c-17,7.1-26.2,10.5-26.7,9.8
		c-0.4-0.6-7.6-17.7-16-37.9c-8.4-20.2-15.5-36.8-15.8-36.8C1285.7,1713.1,1283.2,1714.1,1280.3,1715.3z"/>
	<path d="M727.8,1765.7l-14.5,45.8l6.5,2.2c3.6,1.3,6.6,2.2,6.7,2c0.1-0.1,2.8-8.5,6-18.7s5.9-18.7,6.1-18.8
		c0.4-0.5,32.8,9.8,33.8,10.8c0.4,0.5,2.2,10.4,4,22.2l3.1,21.3l6.9,2.3c3.8,1.3,7.1,2.1,7.4,1.8c0.2-0.3-0.9-9.7-2.7-20.8
		c-1.7-11.2-3.1-20.9-3.1-21.6c0-0.7,1.3-1.2,3.3-1.2c5,0,12.3-2.5,16.3-5.5c10-7.6,14-24.5,8.4-35.5c-2-4-8.3-10.1-12.7-12.3
		c-2.1-1.1-45.5-15.2-58.9-19.1C742.5,1720,741.4,1722.9,727.8,1765.7z M799.3,1753.5c5.9,3.8,7.1,10.2,3.5,17.5
		c-2.9,5.6-7.6,8.3-13.3,7.6c-3.3-0.4-45.3-13.2-46.3-14.1c-0.4-0.3,7.4-25,8.3-26.5C752.1,1737,795.5,1751,799.3,1753.5z"/>
	<path d="M1212,1738.4c-6.9,1.8-20,5.3-29.2,7.7c-9.3,2.4-16.8,4.8-16.8,5.2c0,0.5,5.4,21.3,12,46.2s12,45.5,12,45.8
		c0,0.2,2.9-0.3,6.5-1.1c4.6-1.1,6.5-2,6.5-3.1c0-0.9-2.2-9.7-4.9-19.6c-2.6-9.9-4.5-18.3-4.2-18.7c0.3-0.3,10.2-3.1,21.9-6.2
		c11.8-3.1,23.1-6.5,25.2-7.6c13.2-6.7,17.6-22.4,10.6-37.3c-3.2-6.7-8.3-11.2-15-13.2C1229.6,1734.4,1226.1,1734.7,1212,1738.4z
		 M1235.5,1751.2c3.5,2.7,5.5,7.5,5.5,13.2c0,3.6-0.6,5-3.1,7.5c-1.6,1.7-4.7,3.5-6.7,4.1c-11.4,3.3-40.8,10.8-41.3,10.4
		c-0.8-0.4-7.3-25.3-6.8-25.8c1.1-1,42.9-11.5,46-11.5C1231.4,1749,1233.7,1749.8,1235.5,1751.2z"/>
	<path d="M851.7,1752.7c-0.3,1-3.8,22.2-7.9,47.1c-5.8,36.5-7,45.5-5.9,46.1c1.4,0.9,11.2,2.3,11.8,1.7c0.2-0.2,1.3-5.7,2.4-12.2
		c1.8-11.1,2.2-12.1,5.2-14.7c6-5.2,25.7-20,26.1-19.6c0.3,0.2,5,12.8,10.7,27.9c5.6,15.1,10.3,27.6,10.5,27.8
		c0.4,0.7,14.4,2.6,14.9,2.1c0.3-0.3-5-14.9-11.6-32.5c-6.7-17.5-12.3-32.6-12.6-33.4c-0.2-1,5.6-6,17.6-15
		c9.9-7.4,17.7-13.7,17.5-13.9c-0.4-0.5-14.1-3-16.5-3c-0.9-0.1-13.8,9.2-28.5,20.5c-17.4,13.3-27,20.1-27.2,19.1
		c-0.2-0.8,1.3-11.2,3.3-23.1c1.9-12,3.5-22.3,3.5-23.1c0-0.7-1.7-1.6-3.7-1.9c-2.1-0.4-5-0.9-6.5-1.2
		C852.8,1751,852,1751.3,851.7,1752.7z"/>
	<path d="M1092.5,1761.7c-19.8,2.5-36.1,4.6-36.2,4.7c-0.4,0.3,1.6,12.8,2,13.2c0.3,0.3,7.8-0.5,16.7-1.6s16.4-1.9,16.7-1.7
		c0.2,0.3,2.6,18.6,5.3,40.7c2.7,22.2,5.1,40.4,5.2,40.5c0.5,0.4,11.9-1.3,12.5-1.9c0.3-0.3-1.5-17.5-4.1-38.4
		c-5.3-43.3-5.3-43.2-2.8-43.2c4-0.2,30.3-3.7,30.8-4.2c0.3-0.3,0.2-3.3-0.2-6.7l-0.7-6.1l-4.6,0.1
		C1130.6,1757.2,1112.3,1759.3,1092.5,1761.7z"/>
	<path d="M957.7,1799.6c-0.4,18.6-0.7,40.3-0.7,48.1v14.3l4.8,0.1c2.6,0.1,20.7,0.4,40.3,0.8l35.7,0.6l0.5-6.5c0.3-3.6,0.3-6.7,0-7
		c-0.2-0.2-15.5-0.6-33.9-0.8l-33.5-0.4l0.3-14.7l0.3-14.6l16.3,0.4l16.2,0.4v-7.2v-7.1h-15.9c-8.8,0-16.1-0.3-16.3-0.8
		c-0.2-0.4-0.2-6.2,0-13l0.3-12.3l32.5,0.7l32.4,0.7v-7.1v-7.2h-11.7c-6.5,0-24.2-0.3-39.4-0.7l-27.6-0.6L957.7,1799.6z"/>
</g>
<g id="Windsor">
	<path d="M962,185.5V229h33h33v-6.5V216h-26.5H975v-37v-37h-6.5H962V185.5z"/>
	<path d="M1069.6,188c-26.2,42.4-26,41.9-19.1,42c1.7,0,3.9,0.3,5,0.6c1.8,0.4,3.3-1.5,10.3-12.9l8.2-13.4l19.3,2.5
		c10.5,1.3,19.4,2.6,19.6,2.8s2.2,6.7,4.6,14.5c2.3,7.8,4.8,14.5,5.6,14.9c0.8,0.4,3.9,1,7.1,1.4c5.5,0.6,5.6,0.6,5-1.7
		c-0.4-1.3-6.5-21.8-13.7-45.5c-14.5-48.1-12.1-43.3-22.5-44.7l-4.5-0.6L1069.6,188z M1104.3,180.2c2.6,8.4,4.5,15.3,4.3,15.5
		c-0.4,0.4-25.9-2.8-26.5-3.3c-0.5-0.4,16.2-27.4,17-27.4C1099.4,165,1101.7,171.8,1104.3,180.2z"/>
	<path d="M800.1,161.6c-14,3-25.6,5.6-25.7,5.7c-0.3,0.4,17.2,83.7,17.8,84.3c0.8,0.7,11.8-1.5,11.8-2.3c0-0.4-1.6-8.3-3.6-17.6
		c-1.9-9.3-3.4-17-3.2-17.2c0.3-0.3,30.2-6.5,31.2-6.5c0.3,0,5.8,6.8,12.2,15.1c6.5,8.3,12.4,15.3,13.2,15.6c0.8,0.3,4.1,0,7.4-0.8
		l6-1.4l-12.1-15.4c-6.7-8.5-12-15.8-11.9-16.2c0.2-0.4,2.3-2.2,4.7-4c6.2-4.7,9.1-10.6,9.1-18.4c0-11.5-4.4-19.5-13.2-23.9
		C836.2,154.8,830,155.3,800.1,161.6z M837.5,169.4c8.6,3.6,10,16.3,2.3,21.7c-1.9,1.4-9.8,3.5-24,6.5c-11.6,2.5-21.2,4.3-21.3,4.2
		c-0.7-0.7-5.3-24.3-4.9-24.8c0.7-0.6,39.1-8.8,42.2-8.9C833,168,835.6,168.6,837.5,169.4z"/>
	<path d="M1190.5,166.2c-0.2,0.7-5.2,19.1-11.1,40.8s-10.8,40-11.1,40.5c-0.4,1.1,11.5,4.7,12.1,3.6c0.1-0.3,1.5-5.4,3.1-11.2
		l2.7-10.5l14.2-8.7l14.1-8.6l1.6,5.2c0.8,2.9,3.9,14.7,6.9,26.4l5.4,21.2l6.3,1.7c3.5,0.9,6.6,1.5,6.9,1.2
		c0.3-0.3-3.1-14.4-7.6-31.4c-7.8-29.3-8.1-30.9-6.3-32.1c1-0.8,9-5.7,17.7-11l16-9.7l-8.4-2.3l-8.4-2.3l-25.2,15.5
		c-13.9,8.5-26,15.8-26.8,16.1c-1.4,0.5-1.4,0.1-0.1-4.3c2.1-7.5,9.3-34.6,9.7-36.7c0.2-1.4-0.7-2.1-4.2-3.2
		C1192.4,164.7,1191.1,164.7,1190.5,166.2z"/>
	<path d="M684.4,193.5c-24.4,5.3-41.5,28.8-37.5,51.6c2.5,14.8,12.4,28,26,34.7c6.8,3.3,8.3,3.7,17.5,4c8.4,0.3,11.2,0,16.6-1.8
		c15.9-5.3,28.4-18.6,31.9-34.1c2.5-10.6,0.4-23.5-5.2-33.1c-3.4-5.9-12.2-14-18.7-17.3c-5.5-2.8-16.3-5.5-21.5-5.4
		C691.9,192.1,687.7,192.8,684.4,193.5z M709.3,208.4c15.4,7.5,22.4,26.7,15.3,42.2c-12.3,27-50.7,28.2-62.8,1.9
		c-3.3-7.2-3.3-21.1,0.1-27.5c4.5-8.8,12.4-15.3,22.6-18.7C691,204.2,702.7,205.1,709.3,208.4z"/>
	<path d="M1289.6,239.6c-9.6,22.5-16.5,39.9-16,40.4s15.7,7.2,33.7,14.9l32.9,13.9l2.4-5.4c1.3-3,2.4-5.6,2.4-5.8
		s-12.5-5.6-27.7-12.1c-15.3-6.5-27.9-11.9-28.1-12.1c-0.2-0.1,2-5.6,4.8-12.3l5.2-12l3.2,1.3c1.7,0.7,7.5,3.2,12.8,5.5
		c5.3,2.2,10.1,4.1,10.6,4.1c1.4,0,5.5-10.1,4.5-11c-0.4-0.4-6.5-3.1-13.5-6l-12.7-5.4l1.5-3.5c0.9-2,2.8-6.5,4.2-10
		c1.5-3.5,3.1-6.5,3.7-6.7c0.5-0.2,12.6,4.5,26.9,10.6c14.2,6,26.2,11,26.6,11c1.2,0,5.2-10.2,4.3-11.1
		c-0.7-0.7-63.6-27.9-64.5-27.9C1306.6,200,1298.9,217.8,1289.6,239.6z"/>
	<path d="M572,245.6c-20.8,5.4-36,21-36,36.7c0,13.3,10.9,23,24,21.3c2.8-0.3,10.6-3.6,20.9-8.8c14.9-7.5,17-8.3,22.2-8.3
		c6.4,0,9.2,1.7,11.6,7.3c4,9.5-8.4,23-27.4,29.9c-6.9,2.5-16,3.2-24,1.9l-4-0.7l-1.1,4.4c-0.7,2.4-1.4,5.1-1.7,6
		c-0.5,1.2,0.7,1.7,5.8,2.6c17.6,3.1,34.1-1.4,49.9-13.5c17.2-13.3,20.9-31.2,8.8-43.2c-4.7-4.7-8.6-6.4-16.2-7
		c-8.8-0.6-13.9,1.1-30.1,10c-15.5,8.5-19.2,9.1-23.8,4c-4.9-5.5-3.3-11.8,5.1-19.6c8.3-7.8,19.4-12.1,33-12.9l4.5-0.2l0.5-5.8
		l0.5-5.7l-8.5,0.1C581.3,244.1,575,244.8,572,245.6z"/>
	<path d="M1471.5,296.7c-9.8,1.4-17.6,5.3-25.3,12.7c-15.4,14.8-18.6,36.7-8.1,55.2c6.3,11.2,20.3,21.8,33.8,25.8
		c5.9,1.7,21.6,2.2,24,0.7c1-0.7,1.2-2.2,0.7-6.4l-0.7-5.5h-9.2c-11.2,0.1-17.5-2.1-26-8.7c-18.6-14.7-21.4-36.2-6.6-51.5
		c6.2-6.4,13.7-9.4,23.1-9.4c6.6,0,8.6,0.5,14.4,3.4c11.3,5.5,19.5,15.6,23.5,28.8c1.1,3.7,1.6,4.3,3.3,3.8c1.2-0.3,3.8-0.6,5.9-0.6
		c3.3,0,3.7-0.3,3.7-2.5c0-3.2-4.2-14.2-7.7-20.2s-12.7-15.3-18.5-18.7C1493,298.4,1479.9,295.5,1471.5,296.7z"/>
	<path d="M471.7,312.1c-2,0.5-5.8,2-8.5,3.3c-4.1,2.1-22.7,15.7-35.9,26.3l-4.2,3.3l26.1,34.3c14.4,18.8,26.3,34.4,26.5,34.6
		c0.5,0.7,32.6-24,38.5-29.7c7.2-7,9.9-13,10.5-23.7C526.6,329.9,499.9,305.5,471.7,312.1z M492.8,326.6
		c18.6,9.2,25.8,32.7,14.3,46.5c-3.8,4.6-27.9,23.1-29.1,22.4c-0.9-0.5-34.6-44.4-36.3-47.1c-0.8-1.3,23.8-20.4,29.3-22.8
		C476.8,323.1,486.7,323.6,492.8,326.6z"/>
	<path d="M1549.1,398.5c-23.8,9.6-43.5,17.6-43.7,17.8c-0.2,0.2,1.8,2.4,4.4,4.9l4.7,4.6l13.9-5.4c7.7-3,14.5-5.3,15.1-5.2
		c0.7,0.2,7.3,6.1,14.7,13.3l13.6,13l-5.3,14.5l-5.3,14.5l4.6,4.7c2.6,2.7,4.9,4.8,5.3,4.8c0.3,0,7.7-20,16.4-44.5l15.8-44.6
		l-4.8-4.9c-2.7-2.8-5.2-5-5.5-5C1592.7,381.1,1573,388.9,1549.1,398.5z M1587,397.7c0,0.3-2.3,7.3-5.2,15.4l-5.1,14.8l-8.7-7.9
		c-11.4-10.4-11.7-10.8-9.4-11.7c1.1-0.4,7.5-3,14.4-5.9C1586.1,396.9,1587,396.6,1587,397.7z"/>
	<path d="M373.5,389.7l-3.9,4.5l7.9,7.7c4.4,4.2,15.1,14.5,23.8,22.9c8.7,8.3,15.5,15.2,15,15.2c-0.4,0-19.4-1.8-42.2-4.1l-41.5-4.1
		l-3.9,4.1c-2.1,2.3-3.7,4.6-3.5,5.1c0.2,0.5,14.2,14.2,31.1,30.6l30.9,29.7l4.4-4.4l4.5-4.5L372.8,470
		c-12.8-12.4-23.5-22.9-23.7-23.3c-0.2-0.5,1-0.7,2.5-0.4c1.6,0.4,20.4,2.3,41.7,4.3l38.9,3.7l4.5-4.5l4.5-4.5l-31.3-30.2
		c-17.2-16.5-31.5-30.1-31.8-30C377.8,385.1,375.7,387.2,373.5,389.7z"/>
	<path d="M1647.9,462.3c-6.9,5.6-22.1,17.8-33.8,27l-21.2,16.8l4.1,4.9l4.1,4.9l14.5-11.6c12.3-9.8,14.7-11.4,15.8-10.2
		c0.7,0.8,5.7,6.9,11,13.6c5.3,6.8,9.9,12.3,10.3,12.3c0.3,0,2.8-1.7,5.4-3.7l4.8-3.7l-3.2-4c-11.9-14.7-18.7-23.4-18.7-23.9
		c0-0.3,4.1-3.8,9.1-7.8c7.7-6.1,9.2-7,10.4-5.8c0.8,0.8,8.9,10.8,18,22.4c9.1,11.5,17,21.1,17.4,21.3c0.4,0.1,2.8-1.4,5.4-3.4
		c4.1-3.2,4.6-3.9,3.4-5.3c-0.7-0.9-10.7-13.4-22.2-27.9c-11.4-14.4-21-26.2-21.4-26.1C1660.8,452.1,1654.8,456.7,1647.9,462.3z"/>
	<path d="M286.3,487.7c-1.7,2.1-3.3,4.3-3.7,5c-0.4,0.8,11.3,10.3,32.8,26.7c18.4,14.1,34.1,25.8,34.9,26.2c0.9,0.3,2.7-1.2,4.9-4.2
		l3.5-4.7l-34.5-26.4c-18.9-14.5-34.6-26.3-34.7-26.3C289.3,484,287.9,485.7,286.3,487.7z"/>
	<path d="M253.1,531.6c-1.7,2.7-3.1,5.4-3.1,5.9c0,0.6,9.9,11.8,22,24.9c12.2,13.1,21.9,24,21.7,24.3c-0.3,0.2-14.3-3.2-31.2-7.7
		s-31.3-7.9-32-7.6c-0.7,0.2-2.4,2.5-3.9,5.1l-2.8,4.6l23.2,24c12.8,13.1,22.8,23.9,22.2,23.9c-0.5,0-14.8-3.4-31.7-7.5
		c-16.8-4.1-31.2-7.5-31.8-7.5c-0.7,0-2.6,2.4-4.4,5.2l-3.2,5.3l42.7,10.7c23.5,5.9,43.5,10.8,44.4,10.8c1,0,2.9-2.2,4.9-5.6
		l3.1-5.6l-4.4-4.6c-28.9-30.2-38.7-40.6-38.4-41c0.2-0.2,13.5,3.1,29.6,7.2c16,4.2,29.7,7.6,30.3,7.6c0.7,0,2.6-2.4,4.4-5.3
		l3.2-5.2l-3.3-3.5c-1.8-1.9-14.4-15.7-28.1-30.5c-13.6-14.9-26-28.3-27.6-29.9l-2.7-2.9L253.1,531.6z"/>
	<path d="M1695.5,571.1c-20.3,12.1-36.9,22.3-36.8,22.7c0.5,2.2,36.7,62.2,37.5,62.2c0.5,0,3-1.2,5.4-2.6c3-1.8,4.3-3.1,4-4.1
		c-0.3-0.8-7.1-12.5-15.1-26S1676,598.4,1676,598c0-0.9,20.3-13,21.7-13c0.5,0,4.1,5.6,8.1,12.4l7.3,12.4l5.4-3.1
		c3-1.7,5.3-3.3,5.1-3.6c-0.2-0.3-3.6-6.1-7.6-12.9c-4-6.7-7.1-12.4-6.9-12.5c0.2-0.2,4.4-2.7,9.4-5.6c5.8-3.4,9.4-5,10.2-4.4
		c0.7,0.4,7.6,11.6,15.4,24.8c7.8,13.2,14.3,24.1,14.4,24.3c0.2,0.2,2.6-1.1,5.5-2.9c3.1-1.9,4.9-3.7,4.6-4.5
		c-0.8-2.2-33.8-57.8-35-59.1C1732.8,549.5,1723.2,554.7,1695.5,571.1z"/>
</g>
<g id="Mountain">
	<path d="M1011.4,448.4c-4.2,1.9-7,5.7-8.9,12.4c-3.7,12.5-11.3,24-23.9,35.9c-11.3,10.7-17.1,13.6-28.5,14
		c-10.2,0.4-10.9,0.9-14.1,10.6c-1.2,3.7-3.7,8.7-5.6,11c-1.8,2.3-5.3,7.8-7.7,12.2c-9.2,17.1-50.9,89.4-56.1,97.7
		c-7.4,11.5-16.3,22.6-21.5,26.7c-5.4,4.3-10.2,6-16.9,6.1c-5.7,0-10.6,1.9-11.6,4.5c-0.3,0.9-0.6,3.3-0.6,5.3
		c0,4.2-5.2,17.4-9.6,24.4c-4.7,7.6-16.8,21.9-35.1,41.7c-17.9,19.4-30.9,35.7-42,52.6c-3.7,5.5-8.8,12.3-11.3,15
		c-3.1,3.3-5.3,7-6.5,10.5c-2.8,8.6-3.9,10.3-13.5,20.5c-5.5,5.9-10.2,12-12.1,15.8c-9.6,18.9-30.4,43.2-56.9,66.3
		c-6.3,5.6-20.7,17.4-32,26.2c-18.2,14.3-20.9,16.2-24.2,16.2c-4.3,0-6.2,2.2-7.3,8.1c-1.3,7-2.7,6.8,44.3,6.3
		c44.2-0.5,67.6-1.6,76.2-3.6c9.5-2.2,14.1-9.7,9-14.8c-2.6-2.6-6.7-2.5-15.5,0.1c-7.9,2.3-32.5,4-32.5,2.1c0-0.5,6-3.4,13.3-6.3
		c15.6-6.2,30.5-12.7,55.2-23.8c22.7-10.3,31.8-13.5,36.6-12.7c2,0.3,7.5,2.3,12.1,4.5c12.2,5.6,18.9,7.7,31.3,10.1
		c25.5,4.8,36.4,7.8,49,13.5c6.9,3.2,19.4,8.1,29.4,11.7c10.2,3.6,20.7,8.3,21.5,9.7c1.2,1.8-1.9,2.6-10.1,2.6
		c-9.5,0-11.2,1.2-11.3,8.1c0,6.2,1.1,6.7,12.7,5.4c6.4-0.7,19.1-0.8,36.4-0.4c28.5,0.8,94.1-1.1,99.6-2.7c4.2-1.3,5.6-3.3,5.5-7.7
		c-0.1-2.5-0.9-4.3-2.4-5.5c-2-1.7-3.9-1.8-26.7-1.2c-17.5,0.5-26,1.1-29.3,2.2c-3.4,1-9.4,1.5-20.5,1.5c-20.9,0-22.3-0.3-26.2-5.8
		c-1.7-2.4-4.5-5.3-6.3-6.4c-1.8-1-12-4.8-22.8-8.4c-54-17.9-69.5-23.4-69.8-24.9c-0.2-1.1,5-4.7,17-11.8
		c25.8-15.2,32.8-19.7,38.3-24.6c2.9-2.7,8.7-6.1,14-8.5c19.5-8.6,23.5-8.3,35.5,2.7c7.5,6.9,10.7,8.5,17,8.5c4.6,0,5.1-0.3,6.1-2.7
		c1.6-4.2,0-6.3-10.3-14.5c-11-8.8-12.5-10.5-11.1-11.9c0.6-0.6,9.3-3.3,19.4-5.9c10.1-2.7,24-6.4,30.9-8.2
		c6.8-1.8,13.8-4.3,15.5-5.5c4.7-3.5,7.5-4.5,14.1-5c4.9-0.4,7-0.1,11,1.7c2.7,1.2,7.6,2.6,10.9,3.1c7.8,1.3,17.7,7.4,29.1,18
		c5.5,5.1,9.4,7.9,10.8,7.9c1.3,0,5.7,1.5,9.7,3.4c4.1,1.9,14.2,5.3,22.4,7.6c25.4,6.9,27.4,7.9,45.3,21.6
		c4.4,3.3,13.5,9.5,20.3,13.8c14.4,9,18.4,12,17.6,13.3c-0.9,1.5-59,2.4-74.2,1.2c-20.1-1.6-24.2-1.5-26.5,0.6
		c-2.4,2.1-2.5,4.3-0.6,8.9c1.7,4.1,4.4,5.2,17.4,6.5c17.4,1.9,57.4,1.1,114.1-2.1c23.3-1.3,24.8-1.8,25.8-9.5
		c1.4-10.3-1.1-11.9-14.1-9.6c-13.1,2.3-15.8,1.4-40.6-13.7c-19.5-11.9-36.8-24.2-47-33.5c-10.7-9.7-17.3-12.5-29.7-12.5
		c-6.1,0-7.9-0.5-18.8-5.6c-6.6-3-14-6.5-16.5-7.6s-6.7-3.7-9.5-5.7c-20-15-25.2-18-34.5-20c-8.6-2-9-2.1-9-3.7
		c0-0.9,1.4-3.6,3.1-6.1c4.5-6.5,11.3-20.6,14.4-29.8c3.4-10.3,7.1-18.3,13-27.9c6.5-10.7,8.5-15.7,9.6-23.4
		c0.5-3.7,1.6-10.3,2.5-14.8c2.5-12.8,2.1-13.4-16.8-22.9c-35.1-17.8-56.9-33.9-63.6-47.2c-6-11.7-10.2-30.1-10.2-44.8
		c0-8.5,0.7-12,5.5-30c0.8-3.3,2-8.9,2.5-12.6c2.4-16.9,4.2-20.2,7.3-13.7c1.9,4,4.4,6.3,21.6,20.7c16.1,13.5,19.1,14.6,23.3,9
		c1.8-2.4,1.9-2.9,0.5-5.6c-2.2-4.1-15.1-16.1-24.5-22.7c-10.7-7.5-15.2-13.8-15.2-21c0-1.9,1.6-7.8,3.6-13.2
		c2-5.5,5.8-16.9,8.6-25.4c2.7-8.5,5.1-16.1,5.4-16.8c0.8-2.6,2.9-0.4,10.1,10.8c4.9,7.6,7.3,12.3,7.3,14.3c0,5.5,11.8,24,22.8,35.9
		c10,10.8,11.7,13.6,28.5,48.1c19.9,40.6,29.5,54.7,44,64.5c2.6,1.8,4.9,3.8,5.1,4.5c1.4,5.5,3.3,9.8,5.7,13.2
		c1.6,2.2,3.6,6.3,4.4,9.2c2.5,8.2,5.8,10.3,10.6,6.4c2-1.6,2.5-3.1,2.9-8.8c0.4-5.1,0.9-6.9,2.1-7.1c2.1-0.4,20.3,14.2,25.6,20.4
		c9,10.8,17.9,25.8,31.7,53.8c26.9,54.2,42.7,73.3,76.9,92.6c6.6,3.7,6.4,5.2-0.7,7.1c-15.6,4.2-36.6-7.7-68.9-39
		c-7.2-7.1-8-7.6-12.1-7.6c-4.5,0-8.6,2.5-8.6,5.2c0,2.1,24.9,26,37.9,36.4c9,7.2,22.1,14.7,30.2,17.4c10.4,3.5,24.3,3.7,36.8,0.5
		c5-1.3,9.8-1.9,11.7-1.6c1.7,0.4,7.8,3.8,13.5,7.8c23.8,16.3,39.1,31,54,52c2.6,3.6,7.4,8.7,10.7,11.4c3.3,2.7,6.1,5.4,6.1,6
		c0.1,1.8-13.4,2.7-20.9,1.5c-8.6-1.4-15.3-1.4-16.8,0.1c-1.9,1.9-1.4,7.3,1,10.3c2.1,2.7,2.1,2.8,0.3,4.1c-1,0.8-2.4,1.4-3,1.4
		c-3.4,0-15.4,4.9-25.5,10.5c-6.3,3.5-18.7,9.5-27.6,13.3c-19.6,8.5-21.1,9.3-29.9,15.2c-9.5,6.5-13.3,10.5-11.9,12.8
		c0.6,0.9,2,1.8,3.1,2c1.2,0.2,11.5-4.4,22.9-10.1c58.4-29.2,85-40.8,98.1-42.9c5-0.8,10.3-0.8,20.3,0.1c14.9,1.4,17,1.8,17,3.2
		c0,1.1-27.2,40-29.7,42.4c-1,1.1-3.8,1.5-9.6,1.5c-9.8,0-15.7,1.4-15.8,3.8c-0.4,5.6,1.7,7.2,9.2,7.2c3.2,0,6,0.4,6.3,0.9
		s-0.3,1.9-1.3,3.2c-1.8,2.2-3.1,2.5-18.7,3.8c-9.3,0.7-28,1.4-41.6,1.5c-18.5,0.2-25.1,0.6-26.2,1.5c-3.1,2.6-1,12,2.9,13.5
		c2.5,0.9,36.8,0.7,47-0.3c14.4-1.5,21.8-1.7,22.2-0.6c0.1,0.5-0.8,2.3-2.1,4c-2.7,3.3-0.7,3.1-44.1,5.1
		c-17.3,0.7-19.5,1.4-19.5,6.3c0,1.4,0.9,4,1.9,5.7l1.9,3.1l19.3-0.2c10.7-0.1,21.1-0.6,23.3-1l3.9-0.8l-1.7,2.9
		c-4.1,6.9-3.9,6.8-10.4,5.4c-6.5-1.3-13.6-0.4-19.2,2.5c-3.6,1.8-4.9,6-2.7,8.2c1.8,1.8,4.3,1.9,12.7,0.5c3.5-0.6,6.8-0.8,7.2-0.4
		c0.4,0.4-1.3,3.6-3.8,7.1c-4.1,5.7-4.8,6.2-7.2,5.6c-4-1.1-3.4-1.1-22.4,0.4c-10.5,0.8-22.5,1.2-29.7,0.8
		c-10-0.5-12.3-0.3-13.6,0.9c-3.5,3.6-0.3,8.8,6.2,10c2.1,0.4,14.9,0.4,28.5,0.1c17.5-0.5,24.8-0.4,24.8,0.4c0,0.6-2.4,4.4-5.2,8.5
		c-3.6,4.9-6.1,7.6-7.8,8c-1.4,0.3-4.1,1-6.1,1.5c-1.9,0.6-7.8,1.2-13,1.4c-14.7,0.4-28.3,1.7-29.6,2.8c-1.9,1.4-1.6,4.2,0.8,6.3
		c1.9,1.7,3.8,1.9,20.9,1.9h18.8l-1.6,2.8c-1,1.6-2.4,3.5-3.4,4.3c-2.3,2.2-17.3,3.7-38,3.8c-19.1,0.1-20,0.3-21.3,5.7
		c-0.9,3.5,2.2,7.2,6.1,7.2c1.6,0,8.1-0.5,14.4-1.1c21.9-2,28-2.2,28-1c0,2.5-5.3,8.8-7.4,8.8c-2.1,0-31,2.3-52.6,4.1
		c-6.3,0.5-20.7,1.2-32,1.5c-22,0.7-24,1.2-24,6c0,5.1,1.7,5.3,37.5,4.3c18.2-0.5,36.8-1.4,41.5-2c15.4-1.9,22-2.3,22-1.1
		c0,1.2-33,48.4-35.9,51.4c-2.5,2.6-21.7,4.2-35.6,3c-12.4-1.2-39.4-1.1-41.2,0.1c-1.8,1.2-1.6,7.8,0.3,10.6
		c1.8,2.5,2.2,2.5,16.9,0.3c2.9-0.5,10.2-0.2,17.5,0.6c6.9,0.7,16.4,1,21.2,0.7c4.7-0.3,8.9-0.2,9.2,0.3s-7,11.7-16.3,24.8
		l-16.8,23.9l-15.4,0.8c-8.5,0.4-20.9,0.5-27.5,0.2c-11.9-0.6-12.3-0.5-15,1.8c-2.5,2.2-2.7,2.8-1.7,5c1.5,3.3,3.6,3.6,28.6,4.3
		c11.4,0.4,20.7,1,20.7,1.5c0,0.7-33.1,48.3-34.6,49.8c-0.2,0.3-5,0.3-10.5,0.2c-12.4-0.3-14.9,0.9-14.9,6.9c0,3,0.6,4.3,2.7,6
		c2.7,2.1,4.6,2.2,10.1,0.5c1.4-0.5,2.2-0.3,2.2,0.4c0,1.3-7.4,11.6-9,12.6c-0.6,0.4-9.1,0.8-18.8,0.9l-17.7,0.2l-0.9,2.7
		c-1.1,3.1,0.3,6.6,3.7,8.7c1.3,0.8,6.2,1.5,12.5,1.8c5.6,0.3,10.2,0.9,10.2,1.4c0,1.2-12.5,19.3-15,21.8c-1.5,1.5-2.6,1.6-8.1,0.8
		c-8.7-1.3-31.3-0.1-35,1.8c-3.9,2-4.1,7.3-0.3,11.1c2.8,2.8,5.4,2.8,16.9,0.3c5-1.1,11.8-0.7,14.4,0.9c1.1,0.7-0.4,3.3-6.4,12
		c-4.3,6.1-8.5,11.7-9.3,12.4c-1,0.7-5,1.2-11.1,1.3c-5.4,0-10.6,0.6-11.8,1.3c-3.4,1.8-3.1,6.5,0.7,10.3c2.7,2.6,3.5,2.9,7,2.3
		c4.8-0.8,5.2,0.5,1.7,4.9c-2.2,2.7-2.6,2.8-5.6,1.8c-4.8-1.7-7.1-0.2-7.1,4.8c0,2.2,0.5,4.9,1.2,5.9c1,1.6,0.4,2.9-3.5,8.7
		c-2.6,3.8-5.8,8.2-7.2,9.9l-2.5,3l-4.5-4.7c-5.1-5.3-5.6-6.8-2.1-6.8c6.9,0,12.6-4.6,12.6-10.2c0-8.6-6.6-9.8-25.9-4.8
		c-3.2,0.8-3.7,0.6-7.4-3.1c-2.8-2.8-3.7-4.3-3-5c0.6-0.6,8.5-1.4,18-1.9c18.3-0.8,21.9-1.6,22.9-5.4c0.9-3.7,0.2-5.7-2.9-8
		c-2.6-1.9-4.5-2.1-21.7-2.6c-10.4-0.3-19.2-0.9-19.7-1.3c-1.3-1.4-0.9-33.5,0.6-41.7c6.5-35.6,11.1-56.5,13.9-62.3
		c3.6-7.8,9.3-14.3,13.2-15.2c3.6-0.8,9.3,1.8,10.7,4.8c0.6,1.2,2,4.3,3.2,7c1.1,2.6,2.1,6.3,2.1,8.2c0,3.1,2.1,6.5,3.9,6.5
		c3,0,7.1-15.9,7.1-27.3c0-7.3-0.4-9.2-2.7-13.7c-5.6-10.6-14.7-14.4-25-10.5c-6.4,2.4-18.5,14.6-25.8,25.8
		c-9.6,14.8-18.4,38.7-23,62.7c-1.8,9-2,30.4-0.4,40.1c1.3,7.3,0.9,9-1.5,7c-1.4-1.2-2.4-4.8-4.5-16.6c-7.4-40.6-8-46.3-6.1-58.6
		c0.7-4.6,1.8-14.7,2.4-22.4l1.1-14l5.4-2.7c6.5-3.3,10.6-7,13.1-11.8c2.9-5.6,7-18.7,9.4-30c2.2-10.5,2.3-10.5,5.3-10.8
		c3.8-0.4,8.3-4.6,8.3-7.8c0-6.1-4.5-9.8-9-7.4c-2,1.1-2.6,0.9-4.5-1.4c-2-2.3-2.1-3.2-1.4-6.4c2.2-8.7,2.2-10,0.2-11
		c-2.5-1.4-3.6-0.6-6.1,4.5c-1.9,3.6-2.9,4.3-7.4,5.7c-3.7,1.1-6.5,2.8-9.5,5.8c-6.5,6.6-7.5,9.5-13.9,39.3c-2.4,11.1-2.4,23,0,27.4
		c1.5,2.9,1.7,4.7,1.1,11.8c-0.4,4.5-1,8.3-1.4,8.3c-0.4,0-1.5-3-2.5-6.8c-4.4-16.7-11-22.4-23.7-20.7c-6.7,0.9-12.4,5.4-16,12.5
		c-3.8,7.7-6.8,15.1-7.1,17.9c-0.4,2.8-2.9,4.7-5.2,3.8c-1.2-0.5-1.6-2-1.6-6.1c0-8.3,1.9-25.4,3.6-32.1c2.3-9,9.3-23,16.1-32
		c13.5-18.2,42.7-47.2,57.3-57c12.2-8.1,27.7-14.3,41.7-16.5c11.4-1.8,22.7,1.3,28.6,8c2.1,2.3,3.5,3,5.5,2.8c2.2-0.2,2.8-0.9,3-3.6
		c0.3-2.9-0.4-4-5.5-9c-17.4-17-42.7-19.7-69.9-7.7c-11.6,5.1-36.6,24.8-55.7,43.8c-13.3,13.3-21.7,23.9-27.8,35.4
		c-5.1,9.7-6.1,8-3.4-5.7c5.2-26.8,21.4-63.2,34.5-77.4c3.1-3.4,5.1-4.5,9.6-5.6c5.6-1.4,15.3-6.9,18.6-10.6
		c2.2-2.6,9.8-16.6,9.8-18.2c0-0.7,0.7-2.9,1.5-4.8l1.5-3.5l3.6,2.8c3.7,2.7,4,2.8,19.1,3.1c16.9,0.4,18.3,0,18.3-5.1
		c0-6.4-6.8-12.7-12.3-11.3c-4.4,1.1-20.5,2.6-22,2c-2.2-0.8-1.6-22.6,0.8-27.6c1.5-3.1,1.6-4,0.5-5.3c-1.6-1.9-4.2-1.2-9.4,2.6
		c-2.2,1.6-4.8,2.9-5.8,2.9c-3.8,0-11.5,4.7-18.4,11.2c-6.5,6.2-10.3,11-15.9,20.3l-1.8,2.9l-1.5-2.2c-1.3-2-2.3-2.2-10.1-2.2
		c-9.8,0-11.1,0.7-11.1,6c0,5.5,3.2,8,10.1,8c7.9,0,8.3,0.5,7.2,8.1c-0.5,3.8-0.5,7.9,0,10.1c0.8,3.6,0.4,4.5-8.5,19.5
		c-15.4,25.8-20.4,38.7-25.7,65.3c-5.5,28.5-7.3,43.8-6.9,60.7c0.2,9.8-0.1,15.3-0.7,15.3c-1.5,0-6.3-6.4-7.9-10.7
		c-0.9-2.1-2.6-8.3-4-13.8c-2.2-8.8-2.6-13.8-3.7-40.5c-2.2-57.7,1.4-86.3,15.4-123.5c5.6-15.1,6.8-17.5,8.1-17.6
		c0.6-0.1,2.8,0,4.9,0.1c2.3,0.1,5.1-0.7,7.3-2c3-1.7,3.9-1.8,5.2-0.8c1,0.9,4.6,1.3,10.6,1.2c11.9-0.1,14.2-0.7,16.2-4.5
		c1.4-2.9,1.7-3,3.3-1.5c2.2,2,6.5,2.1,8.1,0c2-2.3,1.6-7.5-0.5-9c-3.4-2.5-6.8-1.3-9.3,3.3c-0.8,1.4-1.3,1.3-3.9-0.6
		c-2-1.5-5.2-2.5-9.9-2.9c-5.3-0.6-6.9-1.1-6.7-2.2c0.1-0.8,2.5-8,5.3-16c2.7-8,5-15.3,5-16.2c0-2.6,1.9-3.2,4-1.3
		c1.6,1.4,4.3,1.8,16.2,2c7.9,0.1,21.7,0.7,30.6,1.4c19.2,1.5,31,0.4,36.5-3.3c2.9-2,3.2-2.7,3.1-6.9c-0.1-7.4-1.5-8.3-11.1-6.6
		c-12.8,2.3-73.6,0.7-75.2-2c-0.9-1.3-0.6-13.6,0.4-21.7c0.7-5.7,0.6-6.3-1.4-7.3c-3.1-1.7-5.7-0.5-7.5,3.4
		c-1.3,2.7-2.6,3.7-5.9,4.5c-2.3,0.6-5,1.4-6.1,1.7c-2.9,0.8-9.3,7-12.1,11.8c-2.9,5-12,28-15.6,39.5c-2.3,7.3-2.5,9.9-1.7,26.7
		c0.1,2.2-2.1,11.1-5.1,20.8c-8.9,28.9-13.6,52.8-16.1,80.5c-1.5,16.6-2.4,19.2-2.8,8c-0.9-21.5,4.9-88.7,10.4-121.5
		c4.4-26,18.4-74.8,29.4-102c5.4-13.2,6.1-16,4.5-18.1c-1.2-1.7-1.6-1.7-4-0.4c-3.4,1.8-13.1,13.3-20.2,23.9
		c-5.7,8.6-14.3,24.7-14.3,26.8c0,2-1.5,2.3-4.8,1.1c-6.6-2.5-11.1,5.1-5.9,10c1.3,1.2,2.8,2.2,3.5,2.2c2.2,0,2,1.9-1.9,16
		c-3.9,14.5-8.6,37.6-11,54.5c-0.7,5.5-1.3,21.2-1.3,40.7c-0.1,17.4-0.4,31.9-0.7,32.3c-0.4,0.3-0.9-3.6-1.3-8.7
		c-0.9-11.6-5.2-37.6-12.6-74.8c-4.7-23.8-9.9-34.3-19.3-38.5l-5.2-2.2l-3.7,1.9c-2.1,1.1-3.8,2.4-3.8,2.9s-1.8,2.1-4,3.5
		c-8.2,5.4-11.8,15.9-12.6,36.4c-0.7,15.6,0.1,20,3.5,20c4.2,0,6-3.1,7-12.1c0.6-5.2,2-10.8,3.6-14.5c2.7-6.2,9.4-13.4,12.5-13.4
		c4.9,0,10.1,12.5,13,31c0.7,4.1,2.7,12.9,4.6,19.5c3.5,12.1,9.7,47.9,11.4,65.5c0.5,5.2,1.3,11.1,1.9,13c4.2,15.3,5.1,20.7,7.2,40
		c1,10.1,3.3,24.1,4.5,28.7c0.5,1.7,0.2,2.3-0.9,2.3c-1.8,0-2.2-1.3-3.2-8.5c-0.4-2.8-1.5-8.6-2.6-13c-1-4.4-2.6-12.3-3.5-17.5
		c-1.7-10.1-4.3-20.8-7.4-30.5c-1.1-3.3-2.7-9.6-3.5-14c-2-9.7-9.6-26-15.5-32.8c-6.3-7.2-11.9-10.1-19.7-10.1c-5.7,0-6.8,0.4-12,4
		c-8.5,5.8-14,15.7-11,19.8c1.4,1.9,1.5,1.9,5.1-0.2c5.3-3.1,12.5-3.8,17-1.7c3.3,1.6,8.5,7.6,11.7,13.5c0.7,1.4,2.7,7.2,4.5,13
		c1.8,5.8,4.8,15.2,6.7,21c3.9,11.6,6.1,25.3,4.1,24.8c-1.3-0.3-135.4-145.8-135.4-146.9c0-1.1,14.7-2.1,21.3-1.4
		c11,1.2,17.7-2.1,17.7-8.6c0-3.7-4.2-6.9-8.9-6.9c-2,0-6.9,0.9-10.9,2c-3.9,1.1-10,2-13.4,2.1c-7.5,0.1-9.6,0.8-11.2,3.8
		c-1.2,2.2-1.6,1.9-12.2-9.5c-6-6.5-14.4-15.6-18.6-20.1c-4.3-4.6-7.8-8.7-7.8-9.2s7.3-1.1,16.3-1.3c13.3-0.3,16.8-0.7,19.7-2.2
		c7.4-3.9,9.8-7.9,6.4-10.7c-1.9-1.6-15.2-1.6-28.7,0c-4.5,0.6-12,1.3-16.7,1.6l-8.6,0.7l-7.9-8.8c-4.4-4.8-12.4-13.5-17.7-19.3
		c-5.4-5.8-9.8-11.1-9.8-11.7c0-1.8,16.5-3.2,67-5.4c12.9-0.6,32.1-1.5,42.5-2.1c10.5-0.5,28.4-1.4,39.9-1.8l21-0.8l2.3-2.8
		c1.6-1.8,2.2-3.4,1.7-4.8c-1.1-3.9-3.3-4.7-12.4-4.7c-13.3,0-77.2,2.9-100.5,4.5c-11.5,0.9-27.5,2-35.5,2.6
		c-8,0.5-18.2,1.1-22.7,1.3c-5.5,0.2-8.9,0.8-10.7,1.9c-1.4,0.9-2.7,1.7-2.9,1.7c-0.3,0-6.2-6.3-13.2-14c-7.3-8-13.7-14.3-15.1-14.6
		c-1.3-0.3-4-0.3-5.9,0c-4.3,0.8-7.2,5.7-6.1,10.1c0.4,1.4,8.4,11,17.9,21.3c19.8,21.5,101.7,110.7,112.2,122.2
		c3.9,4.2,12.4,13.5,18.9,20.6c6.6,7.1,40.1,43.5,74.5,80.9c72.8,79.2,80.1,87.1,102.1,111c9.1,9.8,19.4,21.1,23,25
		c3.6,3.9,16.4,17.9,28.5,31.1c12.1,13.1,40,43.5,61.9,67.4c53.6,58.4,53.2,58,57.7,58c2,0,4.6-0.8,5.7-1.8
		c1.2-0.9,9-11.4,17.3-23.2c8.4-11.8,21.2-29.8,28.4-40c46.1-65,75.9-107,87.7-123.5c7.4-10.5,46.9-66,87.8-123.5
		c96.6-135.9,102.7-144.5,135-190c15.1-21.2,33-46.4,39.8-56c6.9-9.6,13.3-19.3,14.3-21.5c2.8-6.4,3.3-13.4,1.2-17.5
		c-1.6-3.1-2.2-3.5-5.6-3.4c-2.5,0.1-4.7,0.9-6.3,2.5c-2.2,2.1-2.7,2.2-6,1c-1.9-0.7-6.1-1.6-9.4-2.1c-5.1-0.7-6.4-1.4-10.7-5.7
		c-2.7-2.6-7.5-7-10.6-9.6c-3.2-2.7-7.7-7.4-9.9-10.5c-4.9-6.7-27.9-32.4-33-36.8c-2-1.7-6.6-5.3-10.4-8
		c-10.2-7.1-23.3-18.3-25.8-22c-3.4-5-6.3-7-23.5-15.4c-8.7-4.3-19.8-10.3-24.7-13.3c-9-5.6-21.4-17.2-27.3-25.4
		c-6-8.3-18.7-31.1-25.1-44.8c-11.3-24.4-24.7-50.7-29.9-58.5c-10.9-16.5-23.5-27-41-34c-7.9-3.1-21.8-11.5-30.4-18.2
		c-7.3-5.8-33.9-53.4-43.3-77.8c-4.9-12.4-4.9-12.5-13.7-21c-16.1-15.5-20.5-22.8-21.1-34.3c-0.3-8.6-0.8-9.4-8.2-14.3
		c-2.9-1.9-5.9-4.5-6.6-5.7c-2.1-3.1-6.4-15.2-7.8-21.7c-2.1-9.4-3.9-12.8-7.2-13.9C1015.9,446.7,1015.2,446.8,1011.4,448.4z
		 M993,505.6c0,0.8-1,3.4-2.3,5.7c-1.3,2.3-4.2,8.6-6.6,14c-8.9,20.3-13.1,36.6-13.1,50.1c0,10.1-1.2,13-7.8,20
		c-3.2,3.3-8.6,10.3-12.1,15.4c-3.4,5.1-9.1,12.8-12.6,17.1c-9.4,11.6-14,19.2-17,28.1c-1.4,4.3-3.3,8.4-4.1,9.1s-5.8,2-11,3
		s-11.4,2.9-13.7,4.1c-5,2.8-9.8,9.6-12.3,17.4c-1,3.2-3.1,7.3-4.8,9.2c-3,3.4-12.8,8.9-20.1,11.2c-12,3.8-17.5,9.3-12.9,12.7
		c2.8,2.2,12.7,1,22.3-2.7c4.4-1.7,8.5-2.9,9.1-2.5c0.5,0.3,0.9,3.8,0.8,7.8c-0.1,5.2,0.8,10.8,3.2,20.2c4,15.9,9.5,33,11.5,36.2
		c1.9,2.9,5.8,3,8.5,0.3c2.5-2.5,2.5-3.6,0.1-10.2c-14.3-39.1-13.8-78.1,1.2-89.2c2.3-1.7,4.1-2,9-1.8c13.7,0.5,20.2-3.2,23.1-13.6
		c3.2-11.6,10-23.7,17.3-31c4.2-4.1,8.1-9.3,10.3-13.4c1.9-3.7,4-6.6,4.5-6.5c0.6,0.2,1.3,6.8,1.6,15.3c1.1,24.4,5.3,33.8,23.4,51.9
		c12.6,12.6,23.8,20.5,43,30.2c15.7,7.9,18.9,10.2,21.6,15.5c4.3,8.4,2.2,20.1-6.3,34c-7,11.6-10.4,18.6-13.9,28.6
		c-4.2,11.9-13.1,30.2-16,32.8c-1.3,1.2-4.4,2.4-6.8,2.7c-3.3,0.4-7.4,2.6-17,9c-9.3,6.3-14.4,9.1-19.6,10.6c-8,2.3-30,7.9-36,9.1
		c-36.1,7.3-36,7.2-40.7,13.1c-1.8,2.2-4.2,5.2-5.3,6.5c-1.2,1.5-4.1,3-7,3.8c-5.5,1.4-29.3,16.3-58.6,36.6
		c-24,16.7-30.9,18.4-43.5,10.7c-3.2-2-8.8-4.5-12.4-5.6c-3.6-1.1-11-3.3-16.5-5c-5.6-1.7-10.9-3.1-11.8-3.1c-2.5,0-9.5,3.4-22.7,11
		c-21.1,12.2-28.3,15.8-57,28c-33.7,14.4-35.5,15.3-39,19.1l-2.7,3l-12.4-0.3l-12.4-0.3l10.5-7.2c28.4-19.5,74.4-65.1,99.6-98.7
		c8.4-11.1,11.2-13.7,19.4-18.3c8.8-4.9,17.7-8,29.5-10.3c6.9-1.4,13.7-3.5,18.3-5.6c12-5.8,22.2-17.8,22.2-26.2
		c0-6.7-4.1-5.4-20.8,6.4c-12.7,9-17,11.1-25.4,12.3c-3.5,0.6-9.4,2.1-13.3,3.5c-3.8,1.3-7.4,2-7.8,1.6
		c-2.4-2.2,38.4-55.2,60.9-79.2c14.1-14.9,25.7-29.5,36.2-45.2c9-13.5,9.6-14,24.6-22.7c15.2-8.8,22.5-19.7,62.1-92.4
		c15-27.6,21.7-38.5,32.5-53c6.5-8.8,6.9-9.2,14.6-12.4c10.4-4.3,17.4-8.6,25.9-16C992,503.7,993,503.1,993,505.6z M877,1052.4
		c0,1.8-4.4,16.9-8,27.6c-2,5.9-3.3,13-4.4,23c-2.9,27-3.5,30-8,45.4c-1.4,4.8-2.6,9.9-2.6,11.3c0,1.3-0.4,2.1-1,1.8
		c-0.5-0.3-1-4.6-1-9.5c0-8.5,2-21,6-37.5c1-4.4,3.8-16.6,6.1-27c3.8-17.3,6.4-26.3,10.1-33.7C875.6,1050.8,877,1050.1,877,1052.4z
		 M924.6,1066.7c2.2,2.3,1.3,13-2,21.5c-3.9,10.1-13.5,29.9-16.8,34.5c-3.6,4.9-10.4,8.9-12.5,7.1c-2.1-1.7-1.5-7.6,1.6-18.9
		c6.5-23.1,12.5-36.7,18.7-42.7C917.4,1064.6,921.8,1064,924.6,1066.7z M810.9,1098.3c4.3,2.2,3.6,3.7-0.9,2.1
		c-6-2.1-10.4-1-14.4,3.7c-3.5,4.2-4.6,4.7-4.6,2.4c0-2.1,6.5-8.3,9.2-8.8C804.7,1096.9,808.5,1097,810.9,1098.3z M973.8,1135.2
		c0.7,0.7,1.2,2.4,1.2,3.9c0,7.5-11.6,31.7-19,39.9c-4.3,4.7-10.6,6.8-14.8,4.8c-5.1-2.5-3.7-12.8,3.1-23.6c3.8-6,18.5-21.5,23-24.3
		C971,1133.7,972.2,1133.6,973.8,1135.2z M806.7,1201c3.6,2.1,6.4,4.8,9.1,8.7c4.4,6.6,5.6,9.8,7.3,19.8c0.6,3.8,2.4,10.4,3.9,14.5
		s3,9.5,3.4,12c0.4,2.5,2.1,11.6,3.8,20.3c1.7,8.6,2.8,16,2.4,16.4c-1.2,1.2-6.6-5-7.6-8.7c-0.5-1.9-2.3-10.3-4-18.5
		c-1.7-8.3-3.5-17-4.1-19.5c-0.6-2.5-1.5-6.5-2.1-9c-3.3-14.2-10.4-29.8-15.3-33.7c-3.2-2.6-4.6-5.3-2.7-5.3
		C801.2,1198,803.8,1199.4,806.7,1201z M1011,1209.4c0,0.2-4.3,2.7-9.5,5.5c-36.9,19.7-72.4,53.8-88.2,84.7c-7.7,15-13.9,35-15,48.2
		c-0.6,7.7-2.1,9-3.7,3.4c-0.6-2.2-0.2-6.1,1.8-14.9c1.5-6.5,3.1-15.4,3.5-19.8c0.5-4.4,1.8-10.7,3-13.9c4.8-13.6,18.5-32,39.1-52.7
		c18.9-18.9,35.6-30.6,53.9-37.6C1003.3,1209.5,1011,1208,1011,1209.4z M993,1274.9c3,5.7-1.6,33.9-7.2,43.9
		c-3.1,5.7-5.9,8.2-8.9,8.2c-4.8,0-6.1-5.2-3.8-14.8c2.7-11.4,7.3-26,9.5-30.4C986.8,1273.5,990.8,1270.9,993,1274.9z
		 M1043.8,1326.6c1.2,0.8,2.2,2.4,2.2,3.5c0,1.8-0.4,2-3.2,1.3c-4.2-1.1-9.5-1-13.1,0c-4.3,1.3-2.4-1.8,2.6-4.3
		S1040.8,1324.4,1043.8,1326.6z M946.8,1337.2c2.3,2,1.1,2.3-8.3,2.4c-5.2,0-9.5-0.1-9.5-0.2c0-0.7,4.6-2.8,7.5-3.5
		C939.9,1335.1,944.9,1335.7,946.8,1337.2z M944.2,1350.2c3.2,1.2,7.3,6.9,8.7,12.3c0.6,2.2,2.9,13.4,5.2,25
		c2.3,11.5,4.5,22.6,4.9,24.5c2,9,5,23.4,5,23.7c0,1.3-4.6-3.3-19.4-19.5c-9.6-10.4-16.6-18.8-16.3-19.6c0.5-1.3,5-2.6,9.2-2.6
		c5.3,0,7.8-8.2,3.7-12.3c-1.8-1.7-3.2-2.1-7.9-1.9c-3.2,0.1-8.6,1-12,2.1l-6.1,1.9l-3.6-3.7c-6.1-6.2-5.6-6.5,11.3-5.7
		c13.2,0.6,15.1,0.4,16.6-1c4-4,4.6-10.6,1.3-12.8c-3-1.8-15.3-3.9-18.8-3.1c-4,0.9-4.5-0.9-1-4.3
		C929.5,1348.6,937.1,1347.4,944.2,1350.2z"/>
	<path d="M1262.1,934.6c-1.2,1.5-2.1,3.7-2.1,5c0,5.7,8.3,8.7,11.4,4.2C1276.6,936.4,1267.6,927.6,1262.1,934.6z"/>
	<path d="M1059,937.2c-11.1,1.1-14,2.5-14,6.9c0,3.4,2.3,8.4,4.2,9.1c0.7,0.3,6.8,0.2,13.6-0.2c10.2-0.6,12.7-1,14.2-2.6
		c2.8-2.9,3-10.2,0.4-12.8C1075.7,935.8,1073.4,935.8,1059,937.2z"/>
	<path d="M1027.8,941.4c-3,2.2-4,6.3-2.4,10.1c1.5,3.6,4.4,5,8.2,4.1c4.7-1.2,5.9-9.2,1.9-13.1
		C1032.8,939.7,1030.4,939.4,1027.8,941.4z"/>
	<path d="M1338,941.9c-2.5,4.8,0,13.1,4,13.1c2.6,0,5-3.8,5-7.8c0-4.9-1.6-7.2-5-7.2C1340.1,940,1338.7,940.7,1338,941.9z"/>
	<path d="M706.1,970.1c-3.6,3.8-3.5,13.7,0.1,14c4.8,0.4,7.1-0.9,9.4-5.3C719.4,971.5,711.5,964.3,706.1,970.1z"/>
	<path d="M1078.8,973.7c-2.5,2.9-2.9,5.3-1.3,8.2c2.4,4.7,7.8,5.6,11.3,1.8c2.6-2.7,2.8-6.4,0.6-9.5
		C1087.5,971.4,1081.1,971.1,1078.8,973.7z"/>
	<path d="M1045.5,980c-11.6,1.1-14.8,4.6-7.5,8.2c4.8,2.5,25.1,2.6,27.4,0.2c2.3-2.2,2-6-0.6-7.8
		C1062.4,978.9,1057.9,978.8,1045.5,980z"/>
	<path d="M850.5,981.1c-1.6,0.5-4.4,0.7-6.1,0.4c-6.5-1.1-10.9,3.4-9.7,9.9c0.9,4.6,4.4,5.6,13.8,3.9c10-1.8,12.6-3,13.8-6.7
		c0.7-2.2,0.5-3.3-1-5.5C859.1,980.2,855.4,979.5,850.5,981.1z"/>
	<path d="M819.9,984.2c-0.9,0.7-1.9,2.9-2.3,4.8c-0.3,1.9-0.9,4.7-1.2,6.2c-1.3,5.6,8.3,6.3,11.1,0.8c1.8-3.5,1.9-7.9,0.2-10.2
		C825.9,983.5,821.8,982.6,819.9,984.2z"/>
	<path d="M865.6,1003.6c-2.5,2.5-1.9,5.9,1.5,8.8c4,3.4,8.3,3.4,10.4,0.2c1.5-2.2,1.5-2.7,0-5.6
		C875.1,1002.3,868.7,1000.5,865.6,1003.6z"/>
	<path d="M819.4,1005.9c-5.3,0.9-7,6.3-3.1,9.8c3.9,3.6,6.6,4.5,10.6,3.7c2-0.4,8.2-0.8,13.8-0.8c9.3-0.1,10.3-0.3,12.7-2.5
		c1.4-1.4,2.6-3.5,2.6-4.7c0-2.4-2.3-5.3-4.3-5.5C848.5,1005.6,821.1,1005.5,819.4,1005.9z"/>
	<path d="M1347.7,1006.8c-3.5,3.9-1,9.2,4.2,9.2c2.9,0,6.1-2.7,6.1-5.1C1358,1005.8,1351,1003.1,1347.7,1006.8z"/>
	<path d="M798.5,1008.5c-1.4,1.3-2.5,3.6-2.5,5c0,3.1,4.1,7.5,7,7.5c5.8,0,8.2-9.1,3.4-12.9C803,1005.4,801.4,1005.5,798.5,1008.5z"
		/>
	<path d="M1311.8,1008c-6.1,1.8-25.5,3.3-47.3,3.5c-12.6,0.2-26.1,0.8-30,1.4c-10.5,1.6-43,1.4-51.2-0.3c-5.5-1.2-21.9-2.1-28-1.7
		c-2.2,0.2-4.4,4.7-3.7,7.5c1.1,4.4,4.4,5.5,12.2,3.8c5.9-1.2,7.5-1.1,13.2,0.2c8.1,2,33.8,2.7,54.5,1.5c8.3-0.5,25.8-1.1,39-1.4
		c13.2-0.3,27.4-0.9,31.5-1.5c4.1-0.5,10.5-0.9,14.2-1c6,0,6.9-0.3,8.7-2.6c2.7-3.5,2.6-4.6-0.5-7.8
		C1321.6,1006.9,1317.4,1006.3,1311.8,1008z"/>
	<path d="M1080.5,1011.7c-3.1,0.8-4.5,2.3-4.5,4.8c0,3.2,3,5.4,8.1,6c5.9,0.8,10.1-0.6,11.9-3.8c1.4-2.5,1.3-2.8-0.7-4.8
		C1093.1,1011.6,1085,1010.4,1080.5,1011.7z"/>
	<path d="M1116.2,1013.9c-4.7,0.4-6.7,1.1-7.8,2.5c-1.9,2.7-1.8,4.2,0.7,6.7c2,2,3,2.1,14.9,1.7c12-0.3,13-0.5,15.4-2.7
		c3.2-3,3.2-3.6,0.1-6.6c-2.1-2.2-3.2-2.5-9.7-2.3C1125.8,1013.2,1119.6,1013.6,1116.2,1013.9z"/>
	<path d="M1054.2,1017.2c-0.7,0.7-1.2,2.7-1.2,4.5c0,4.1,3.5,6.2,7.8,4.7c2.1-0.7,2.8-1.7,3-4.2c0.2-1.8-0.2-4-0.9-4.8
		C1061.5,1015.7,1055.9,1015.5,1054.2,1017.2z"/>
	<path d="M1266.7,1026.9c-5.2,0.8-6.7,2.1-6.7,6.2c0,3.4,2.3,4.9,13,8.2c10.3,3.3,14.1,3.4,16.5,0.7c2.5-2.8,2.5-8.5,0-11
		c-1.7-1.6-14.9-5.3-17.3-4.9C1271.8,1026.2,1269.3,1026.6,1266.7,1026.9z"/>
	<path d="M1242.2,1030.2c-2.2,2.2-1.4,6.6,1.4,8.5c2.5,1.6,2.7,1.6,4-0.2c1.8-2.4,1.8-4.5-0.2-7.3
		C1245.7,1028.7,1244,1028.4,1242.2,1030.2z"/>
	<path d="M733.6,1031.6c-2.4,2.3-2,6.7,0.9,9.8c3.5,3.7,8.1,3.1,10.5-1.5c1.5-2.7-1-6.6-5.5-8.5
		C735.3,1029.7,735.5,1029.7,733.6,1031.6z"/>
	<path d="M699.3,1035.5c-10.4,1.9-33.6,3.7-39.1,3c-10.7-1.3-14,6.2-4.4,10.2c5.3,2.2,28.9,3.6,44.5,2.6c11.3-0.8,14.2-1.3,16.5-3
		c6-4.4,5.1-11.4-1.7-13.3C710.6,1033.8,708.4,1033.8,699.3,1035.5z"/>
	<path d="M632,1040.8c-3.8,1.2-4,5.9-0.4,10.1c1.4,1.8,3.5,3.1,4.8,3.1c2.8,0,6.6-3.5,6.6-6.1C643,1044,636,1039.5,632,1040.8z"/>
	<path d="M1282,1052.6c-10.2,1.4-24.7,1.3-43.3-0.2c-9.5-0.8-30.4,1.2-33.4,3.2c-2.8,1.7-2.9,5-0.6,9.9c2.1,4.5,4.5,5.1,11.9,2.9
		c5-1.4,7-1.5,13.9-0.5c4.4,0.6,15.7,1.6,25,2.1c9.4,0.6,18,1.3,19.2,1.5c2.9,0.7,15.4-1.2,21.4-3.1c5.9-1.9,8-4.2,8.6-9.7
		c0.5-3.8,0.2-4.7-1.8-6.1C1300.1,1050.7,1296.3,1050.7,1282,1052.6z"/>
	<path d="M834.2,1054.6c-4.8,3.3-1.2,11.4,5.1,11.4c4.2,0,5.7-1.5,5.7-5.6c0-2.3-0.8-3.9-2.6-5.3
		C839.2,1052.6,837.2,1052.5,834.2,1054.6z"/>
	<path d="M1136.2,1057.2c-1.7,1.7-1.5,4.3,0.9,8.9c2.4,4.7,5.4,5,7.8,0.8C1147.9,1061.5,1140.4,1053,1136.2,1057.2z"/>
	<path d="M782.2,1058.1c-2.5,0.9-3.7,6-2.2,8.9c0.6,1.2,2.6,3,4.3,4c2.8,1.7,5,2,17.7,1.9c16.1-0.1,21.3-1.1,24.2-5
		c2.6-3.4,1.2-6.4-3.8-8.5C818.5,1057.8,785.9,1056.7,782.2,1058.1z"/>
	<path d="M1174.5,1058.1c-9.4,0.7-11.3,1.2-12.7,3c-1.6,1.9-1.6,2.4-0.3,5.7c2.7,6.5,4.7,7.5,14,6.7c14.7-1.2,19.5-3.2,19.5-8.1
		c0-2.9-3.8-7.1-7-7.6C1186.6,1057.5,1180.6,1057.7,1174.5,1058.1z"/>
	<path d="M695.8,1059.6c-3.5,1.9-4.5,5.6-2.4,8.9c3,4.5,9.1,4.2,11.7-0.6c1.6-3.1,0.3-6.6-3.1-8.4
		C698.6,1057.7,699.2,1057.7,695.8,1059.6z"/>
	<path d="M763.3,1062.1c-3.7,3.7,1.2,11.9,7.1,11.9c2.2,0,6.6-4,6.6-6c0-1-0.8-2.8-1.8-4C773,1061.3,765.2,1060.1,763.3,1062.1z"/>
	<path d="M1051.2,1072.3c-2.8,3-3.1,10.6-0.4,12.9c4.7,4.1,9,1.9,9.9-5c0.5-3.8,0.2-4.7-2.2-7.3
		C1055,1069.4,1054,1069.3,1051.2,1072.3z"/>
	<path d="M1303.8,1072.5c-0.9,2.1-0.8,2.8,0.7,4.5c1,1.1,2.6,2,3.5,2s2.5-0.9,3.5-2c2.7-3,0.7-7-3.5-7
		C1305.7,1070,1304.7,1070.6,1303.8,1072.5z"/>
	<path d="M1036.1,1074.4c-2.2,2.7-2.5,8.5-0.6,10.6c3.8,4.2,8.5,1.3,8.5-5C1044,1074.1,1039.1,1070.7,1036.1,1074.4z"/>
	<path d="M730,1083.9c-2.1,3.9-1.2,7.7,2.5,11c2,1.7,3.8,3.1,4.2,3.1c0.3,0,2.1-1.1,4-2.6c5.3-4,4.2-10-2.4-12.5
		C734.4,1081.4,731.2,1081.8,730,1083.9z"/>
	<path d="M681,1086.5c-3.3,0.9-7.7,1.2-11.1,0.8c-5.4-0.5-5.6-0.5-7.9,2.7c-2.1,3-2.2,3.5-0.9,5.8c0.8,1.5,2.8,3.4,4.5,4.4
		c2.9,1.7,4.1,1.7,13,0.8c19.1-2.1,25.4-4.5,25.4-9.5C704,1086.6,691.5,1083.9,681,1086.5z"/>
	<path d="M714.9,1086.2c-3.6,1.2-5.3,5.2-3.7,8.6c3,6.2,12,5,12.6-1.7C724.3,1087.7,720.1,1084.4,714.9,1086.2z"/>
	<path d="M1242.6,1098.1c-2.2,3.1,0.7,8.9,4.4,8.9c2.2,0,5-3.1,5-5.7C1252,1096.6,1245.3,1094.3,1242.6,1098.1z"/>
	<path d="M1220.7,1098.8c-3.2,3.5-1.5,7.2,3.3,7.2c2.6,0,6-2.7,6-4.7c0-1.5-2.1-3-5-3.8C1223.1,1097.1,1221.9,1097.4,1220.7,1098.8z
		"/>
	<path d="M729.7,1114.8c-2.3,2.6-2.1,5.8,0.5,7.6c6.4,4.5,14.6-2.7,9-7.7C736.7,1112.5,731.7,1112.6,729.7,1114.8z"/>
	<path d="M1241.7,1129.8c-3.4,3.7-1.1,9.2,3.8,9.2c5,0,7.3-6,3.7-9.3C1246.8,1127.5,1243.7,1127.6,1241.7,1129.8z"/>
	<path d="M873,1134.8c-4.1,3.3-0.5,9.5,4.4,7.6c2.5-1,3.1-5.1,1.1-7.4C876.3,1132.5,875.8,1132.5,873,1134.8z"/>
	<path d="M1087,1146.9c-1.6,3.1-1.2,5.9,1.1,7.4c4.2,3,9.1-1.1,6.8-5.6C1092.7,1144.6,1088.8,1143.7,1087,1146.9z"/>
	<path d="M1200.4,1148c-5.8,0.8-9.4,2.5-9.4,4.4c0,0.7,1.2,2.3,2.6,3.7c2.2,2,3.5,2.4,8.9,2.3c6.6-0.1,11.5-2.1,11.5-4.8
		c0-2.2-3.3-5.3-6-5.8C1206.6,1147.5,1203.2,1147.6,1200.4,1148z"/>
	<path d="M1038.6,1149.6c-1.1,3-0.6,6.1,1.4,7.9c1.7,1.5,3,1.7,8.5,1.1c11.3-1.1,14.2-3.3,11.1-8.1c-1.6-2.4-2.1-2.5-11-2.5
		C1041,1148,1039.1,1148.3,1038.6,1149.6z"/>
	<path d="M1067.8,1150.5c-0.9,2.1-0.8,2.8,0.7,4.5c2.4,2.7,7.2,2.7,8,0C1078.2,1149.5,1070.2,1145.4,1067.8,1150.5z"/>
	<path d="M1223.8,1149.6c-5.1,2.7-2.6,10.4,3.4,10.4c2.2,0,5.8-3.4,5.8-5.5c0-1.7-4.3-6.5-5.7-6.5
		C1226.9,1148.1,1225.3,1148.8,1223.8,1149.6z"/>
	<path d="M1023.6,1151.6c-1.9,1.8-2.1,6.5-0.4,8.2c1.9,1.9,7.3,1.4,9.2-0.7c1.5-1.6,1.6-2.3,0.5-4.3
		C1030.4,1150.1,1026.4,1148.7,1023.6,1151.6z"/>
	<path d="M1169.6,1152.6c-3.4,3.4-1.1,8.4,3.9,8.4c3.5,0,5.5-2,5.5-5.4c0-2.2-2.8-4.6-5.5-4.6
		C1172.2,1151,1170.4,1151.7,1169.6,1152.6z"/>
	<path d="M899.2,1158.6c-3.2,2.2-3,6.9,0.4,9.1c2.4,1.5,2.9,1.5,5.3,0.2c3.6-2,4.1-7.1,0.9-9.3C903,1156.6,902,1156.6,899.2,1158.6z
		"/>
	<path d="M1147.6,1173.6c-0.9,0.8-1.6,2.3-1.6,3.3c0,2.1,3,5.1,5.2,5.1c1.9,0,4.8-3.2,4.8-5.3s-2.7-4.7-5-4.7
		C1150,1172,1148.4,1172.7,1147.6,1173.6z"/>
	<path d="M1126.2,1174.2c-2.2,2.2-1.4,6.6,1.4,8.5c2.4,1.5,2.9,1.5,5.3,0.2c2.9-1.6,4-6.1,2-8.5
		C1133.5,1172.7,1127.9,1172.5,1126.2,1174.2z"/>
	<path d="M1121.5,1236.5c-2.2,0.8-6.3,1.4-9.1,1.4c-7.1,0.1-10.2,3.9-7.4,9c1.5,3,3.6,3.2,14.8,1.5c14.2-2.2,17.4-5.2,11.7-10.9
		C1128.8,1234.7,1127.4,1234.6,1121.5,1236.5z"/>
	<path d="M1145.1,1237.6c-2.5,3.2-2.5,3.4-0.6,6.1c2.1,3,5.1,3.4,8,1.1c3-2.4,3.2-5.1,0.5-7.8
		C1150.3,1234.3,1147.5,1234.5,1145.1,1237.6z"/>
	<path d="M1085.2,1240.6c-2.8,2-3,6.9-0.3,8.4c4.5,2.3,9.1,0.1,9.1-4.5c0-2.3-3.2-5.5-5.5-5.5
		C1087.9,1239,1086.4,1239.7,1085.2,1240.6z"/>
	<path d="M1136,1266.7c-10.1,1.5-13,3.1-13,6.9c0,4.4,4.3,5.5,18,4.7c13.6-0.7,15-1.4,15-6.9c0-3-0.5-3.7-3.5-5
		C1148.6,1264.8,1148.7,1264.8,1136,1266.7z"/>
	<path d="M1183.8,1266.1c-5.2,3-3.7,9.9,2.2,9.9c5.6,0,8.2-6.4,3.8-9.4C1187.2,1264.8,1186.2,1264.7,1183.8,1266.1z"/>
	<path d="M1096.8,1267.5c-0.4,0.4-7.8,0.9-16.5,1.1c-8.7,0.2-21.6,0.6-28.7,1c-8.9,0.5-14.9,0.3-19.7-0.6c-6-1.2-7.1-1.1-9.3,0.4
		c-3.2,2-3.4,5.6-0.5,8.2c2,1.8,4.7,1.9,48.3,2.5c26.2,0.3,46.9,0.2,47.9-0.3s2.2-2,2.7-3.4c2.1-5.5-1.6-7.9-14-8.8
		C1101.8,1267.2,1097.2,1267.2,1096.8,1267.5z"/>
	<path d="M1170.2,1270.6c-2.2,1.5-2.9,4.8-1.4,7.1c1.5,2.4,5.9,2.6,8.1,0.4c2.6-2.6,2.7-4.5,0.1-7.1
		C1174.6,1268.6,1173.2,1268.5,1170.2,1270.6z"/>
	<path d="M1116.5,1297.5c-3.7,0.9-8.7,1.2-13,0.9c-8.6-0.6-13.8,1.5-14.3,5.8c-0.6,5.3,4.9,6.6,23.8,5.6c15.2-0.9,18.3-2.1,18.3-7.4
		C1131.3,1297,1126.2,1295.3,1116.5,1297.5z"/>
	<path d="M1073.3,1303.7c-1.8,0.7-1.6,4.8,0.3,6.7c1.8,1.8,4.7,2,7.5,0.6C1086.5,1308.1,1079.2,1301.3,1073.3,1303.7z"/>
	<path d="M1104.5,1359.4c-3.1,4.7,1,11.6,6.9,11.6c6.3,0,7.2-4.8,2-10.9C1110.2,1356.3,1106.7,1356,1104.5,1359.4z"/>
	<path d="M1042.9,1390.4c-2.3,5,4.6,11.9,8.6,8.6c2.2-1.8,1.8-6.6-0.7-9C1047.8,1387.3,1044.2,1387.4,1042.9,1390.4z"/>
	<path d="M1070.4,1389.7c-5.5,0.5-8.1,3.3-6.8,7.1c1.4,4.1,4.8,5.4,12.8,4.8c6.7-0.5,10.6-2.4,10.6-5c0-0.6-1-2.4-2.3-3.9
		C1082.3,1389.7,1078.4,1388.9,1070.4,1389.7z"/>
	<path d="M1021.8,1423.7c-5.4,6.2-0.8,15.2,6.3,12.3c1.5-0.7,3.1-2.1,3.5-3.2c0.9-2.9-1.5-7.7-4.7-9.3
		C1023.4,1421.7,1023.6,1421.6,1021.8,1423.7z"/>
	<path d="M1035.7,1423.3c-2.7,2.2-2.8,5.7-0.2,8.3c2.8,2.8,5.7,3.1,7.9,0.8c2.2-2.2,2-4.7-0.6-7.1
		C1039.7,1422.5,1037.5,1421.9,1035.7,1423.3z"/>
</g>
<g id="Est">
	<path d="M1549.3,964c-4.1,0.9-12.3,4.6-12.3,5.6c0,0.3,0.7,1.8,1.5,3.4l1.5,2.8l7.2-2.5c5.9-2,8.5-2.4,13.7-2
		c6.8,0.5,11.4,3,11.9,6.4c0.5,3.4-3.1,5.3-12.6,6.8c-10.7,1.6-15.3,3.5-19.1,8.2c-3.3,4-6.1,11.9-6.1,17.4v3.9h23h23v-4v-4h-18.5
		c-12.1,0-18.5-0.4-18.5-1c0-0.6,0.9-2.8,2-4.9c2.3-4.7,6.3-6.6,15-7.6c8.3-0.9,13.4-3,16.5-6.6c5.7-6.8,3.6-15.5-4.6-19.7
		C1567.7,963.6,1556.3,962.5,1549.3,964z"/>
	<path d="M1625.7,964c-8.3,2.1-14.4,6.7-18,13.5c-3,5.7-3,17.3,0,23.1c2.6,4.8,8.2,10.1,13.1,12.1c5,2.1,14.9,2.7,21.4,1.4
		c17.3-3.6,26.4-21.6,18.6-36.6c-3.2-6.2-6-8.8-12.1-11.5C1643.2,963.5,1631.6,962.6,1625.7,964z M1646.1,973.8
		c13.3,6.9,13,23.9-0.5,30.7c-9.8,4.9-24.2,2.1-29.8-5.7c-3.3-4.7-3.6-12.5-0.7-17.8C1620.5,971.4,1635,968,1646.1,973.8z"/>
	<path d="M1754.7,964c-8.7,2.2-12.7,6-12.7,12c0,3.8,3.2,10,5.2,10c0.7,0-0.4,1.4-2.5,3.1c-6.7,5.5-8.2,10.9-4.7,16.6
		c6.6,10.9,38.8,12.4,48.4,2.4c5.6-5.8,4.1-15.1-3.1-19.3c-2.9-1.8-3.2-2.3-1.9-3c0.9-0.5,2.3-2.2,3.1-3.8
		c3.4-6.5,0.8-13.1-6.3-16.2C1774.9,963.4,1760.9,962.5,1754.7,964z M1777.6,973.5c3.2,2.1,3,5-0.3,7.2c-2.1,1.4-4.8,1.8-12.3,1.8
		s-10.2-0.4-12.3-1.8c-4.7-3.1-3.1-7.1,3.6-8.8C1761.1,970.7,1774.9,971.7,1777.6,973.5z M1778.8,993.9c4.8,2.4,6.1,5.4,3.7,8.1
		c-2.7,3-8.3,4.4-17.5,4.4c-9.3,0-14.8-1.4-17.6-4.5c-1.7-1.9-1.7-2,0.3-4.7C1752.2,991,1769.5,989.1,1778.8,993.9z"/>
	<path d="M1696,989v25h4h4v-25v-25h-4h-4V989z"/>
	<path d="M287.5,964.4c-10,3.2-15.4,8.5-16.2,15.9c-0.6,5.8,2.1,10.6,7.6,13.6c3.9,2.1,6.2,2.5,18,3.1c17.1,0.7,20.1,2.2,20.1,10
		c0,11.1-26.2,13.9-39.7,4.1l-3.9-2.8l-3.3,2.6l-3.3,2.7l3.8,3.1c11.4,8.9,27.7,11.6,41.3,6.8c13-4.5,17.6-16.1,10.6-26.6
		c-3.9-6.1-9.9-8.2-23.5-8.6c-6.3-0.2-12.5-0.6-13.7-0.8c-5.6-1.2-7.2-7.9-2.7-11.4c6.4-5,20.4-5.5,29.1-0.9l5.1,2.6l2.1-2.9
		c1.2-1.5,2.1-3.2,2.1-3.7c0-1.2-10.7-6-16-7.2C299,962.7,292.4,962.9,287.5,964.4z"/>
	<path d="M197,994.5v30.5h26h26v-4.5v-4.5h-21.5H206v-9v-9h10.5H227v-4.5V989h-10.5H206v-8v-8h20.5H247v-4.5V964h-25h-25V994.5z"/>
	<path d="M344,968.5v4.5h10.5H365v26v26h4.5h4.5v-26v-26h10.5H395v-4.5V964h-25.5H344V968.5z"/>
	<path d="M421.2,1015.6c-4.7,3.2-1.3,11.4,4.2,10c5.2-1.3,5.9-8.2,1.1-10.4C423.3,1013.7,423.9,1013.7,421.2,1015.6z"/>
</g>
</svg>
